<svg width="57" height="76" viewBox="0 0 57 76" fill="none" xmlns="http://www.w3.org/2000/svg">
<path d="M28.3376 0.00732422C12.7953 0.00732422 0.152344 12.6503 0.152344 28.1926C0.152344 57.3314 25.9794 74.104 27.081 74.8016C27.8517 75.2878 28.8334 75.2878 29.604 74.8016C30.6958 74.1043 56.5233 57.3326 56.5233 28.1926C56.5233 12.6503 43.8799 0.00732422 28.3376 0.00732422ZM28.3376 69.956C23.2915 66.2678 4.84988 51.2025 4.84988 28.1926C4.84988 15.2377 15.3827 4.70486 28.3376 4.70486C41.2925 4.70486 51.8253 15.2377 51.8253 28.1926C51.8253 51.2032 33.3837 66.2685 28.3376 69.956ZM28.3376 16.4487C21.8601 16.4487 16.5937 21.7151 16.5937 28.1926C16.5937 34.67 21.8601 39.9364 28.3376 39.9364C34.815 39.9364 40.0814 34.67 40.0814 28.1926C40.0814 21.7151 34.815 16.4487 28.3376 16.4487ZM28.3376 35.2389C24.4567 35.2389 21.2913 32.0734 21.2913 28.1926C21.2913 24.3117 24.4567 21.1463 28.3376 21.1463C32.2185 21.1463 35.3839 24.3117 35.3839 28.1926C35.3839 32.0734 32.2185 35.2389 28.3376 35.2389Z" fill="white"/>
</svg>
