<svg width="88" height="88" viewBox="0 0 88 88" fill="none" xmlns="http://www.w3.org/2000/svg">
<path d="M71.4256 5.29413C68.5562 5.29413 65.6936 6.36933 63.5091 8.55393L63.4817 8.58133L46.5533 25.9208L41.8965 24.4416C41.3315 24.2567 40.7151 24.3697 40.2529 24.7429L33.4321 30.1942C33.0452 30.5058 32.8089 30.968 32.785 31.4645C32.7576 31.961 32.9425 32.4438 33.2951 32.7965L40.253 39.7543L19.4615 60.9016L15.9278 59.8881C15.2293 59.6861 14.4761 59.9361 14.0378 60.5182L5.87467 71.421C5.34736 72.1195 5.41583 73.1057 6.03903 73.722L14.2021 81.8851C14.8082 82.5014 15.7738 82.5836 16.4758 82.0769L27.8441 73.8316C28.4604 73.3831 28.7172 72.5852 28.4741 71.8593L27.4606 68.7913L48.1969 47.6992L55.1272 54.6296C55.4833 54.9788 55.9696 55.1569 56.466 55.1261C56.9625 55.0953 57.4213 54.8556 57.7295 54.4652L63.1808 47.6718C63.554 47.2095 63.667 46.5931 63.4821 46.0282L62.0029 41.3439L79.3424 24.4427C83.7835 20.1078 83.7116 12.9237 79.3424 8.55481C77.1578 6.37021 74.2952 5.295 71.4259 5.295L71.4256 5.29413ZM71.4256 8.74564C73.3911 8.74564 75.3565 9.52633 76.8768 11.0466C79.9175 14.0873 79.9346 18.9392 76.8768 21.9214L58.7703 39.5897C58.3012 40.0519 58.13 40.7402 58.332 41.3702L59.866 46.1913L56.2228 50.766L37.1573 31.7005L41.7046 28.0573L46.5257 29.5913C47.1558 29.7933 47.844 29.6221 48.3062 29.153L65.9745 11.0465L66.0018 11.0191C67.5188 9.51935 69.4739 8.74542 71.4257 8.74542L71.4256 8.74564ZM42.7178 42.2203L45.7036 45.206L24.2003 67.0932C23.7415 67.5623 23.5806 68.2506 23.7894 68.8737L24.7482 71.7499L15.6266 78.3516L9.5728 72.2978L16.1198 63.5868L19.5165 64.573C20.1431 64.7545 20.8177 64.5764 21.2696 64.1073L42.7178 42.2203Z" fill="white"/>
</svg>
