<svg width="72" height="72" viewBox="0 0 72 72" fill="none" xmlns="http://www.w3.org/2000/svg">
<path fill-rule="evenodd" clip-rule="evenodd" d="M53.6459 25.889C54.2281 25.3068 55.1703 25.3068 55.7525 25.889C56.3346 26.4712 56.3346 27.4134 55.7525 27.9928L47.6748 36.0705L55.7496 44.1453C56.3318 44.7275 56.3318 45.6697 55.7496 46.249C55.1674 46.8312 54.2252 46.8312 53.643 46.249L45.5682 38.1742L37.4934 46.2519C36.9112 46.8341 35.969 46.8341 35.3896 46.2519C34.8075 45.6697 34.8075 44.7275 35.3896 44.1482L43.4673 36.0705L35.3896 27.9928C34.8075 27.4106 34.8075 26.4684 35.3896 25.889C35.9718 25.3068 36.914 25.3068 37.4934 25.889L45.5711 33.9667L53.6459 25.889ZM23.4988 9.05038V9.05601C23.0853 9.05601 22.6747 9.22757 22.3822 9.56226L0.422192 34.588C-0.106561 35.128 -0.145931 35.9942 0.351879 36.5821L22.3032 62.4855C22.5732 62.8511 23.0092 63.0902 23.5014 63.0902H63.4923C65.793 63.0902 67.8855 62.148 69.4014 60.632C70.9173 59.1161 71.8595 57.0236 71.8595 54.723V17.4183C71.8595 15.1205 70.9174 13.028 69.3958 11.5093C67.8798 9.99335 65.7902 9.05116 63.4923 9.05116L23.4988 9.05038ZM63.4926 12.0288H24.1684L3.44605 35.6369L24.1856 60.1111H63.4933C64.9727 60.1111 66.3199 59.5036 67.2987 58.5249C68.2774 57.5462 68.8849 56.1989 68.8849 54.7195L68.8821 17.4171C68.8821 15.9349 68.2774 14.5849 67.3015 13.6117C66.3255 12.6358 64.9755 12.0283 63.4933 12.0283L63.4926 12.0288Z" fill="white"/>
</svg>
