<svg width="91" height="90" viewBox="0 0 91 90" fill="none" xmlns="http://www.w3.org/2000/svg">
<path d="M67.8714 27.1978L70.5686 24.3216L72.8162 26.5692L74.0734 25.4911C75.6924 23.872 75.6924 21.1749 74.0734 19.4681L69.8486 15.2433C68.2296 13.6243 65.5324 13.6243 63.8257 15.2433L62.6562 16.4128L64.9038 18.6604L62.1153 21.4489C50.9689 13.087 35.0521 13.9861 24.9836 24.2374C14.5529 34.8471 14.2867 52.2869 24.355 63.1672C35.3225 75.0338 53.8448 75.3044 65.1701 64.0663C75.4211 54.0823 76.2293 38.3489 67.8708 27.198L67.8714 27.1978ZM28.671 27.5595C37.8404 18.3901 52.6748 18.4773 61.8442 27.5595C65.8899 31.6053 68.1375 36.8207 68.5871 42.036C58.8764 38.6189 31.726 38.798 21.9281 42.4856C22.2863 37.0878 24.4462 31.6934 28.671 27.5595Z" fill="white"/>
<path d="M77.5779 31.1563C81.3532 40.5963 80.995 51.5639 75.6007 61.0039C67.7797 74.7603 51.8675 80.9619 37.2121 77.2785L38.9189 74.3109L28.4009 74.7604L33.3457 84.0216L35.0524 81.054C51.7766 85.9074 70.2943 78.8977 79.3765 63.073C85.9403 51.5642 85.9403 38.1702 80.546 27.1109L77.5779 31.1563Z" fill="white"/>
<path d="M54.7432 6.43207C38.4686 2.56543 20.9371 9.57874 12.2172 24.8626C3.22673 40.6877 6.5525 60.1962 19.3183 72.1545L21.4746 68.2878C10.8649 57.5909 8.08053 40.7751 15.9012 27.0232C23.4518 13.8953 38.3775 7.60191 52.4917 10.3908L50.8726 12.9088L61.3906 12.4593L56.4459 3.19818L54.7432 6.43207Z" fill="white"/>
</svg>
