<svg width="35" height="31" viewBox="0 0 35 31" fill="none" xmlns="http://www.w3.org/2000/svg">
<path d="M31.0131 0.00191939C30.0064 0.0364782 29.0501 0.514529 28.3487 1.33817C22.3007 8.25553 17.6405 14.0555 12.0998 20.5292L6.46812 15.0921C5.68849 14.2944 4.6565 13.8883 3.61191 13.969C2.56732 14.0496 1.5934 14.6112 0.917182 15.5241C0.238445 16.437 -0.0845171 17.6236 0.01896 18.8157C0.119886 20.0051 0.642173 21.0995 1.46221 21.8425L9.85923 29.9521C11.3983 31.441 13.6818 31.3316 15.1074 29.6987C22.0762 21.7277 27.0292 15.3712 33.8392 7.58151C34.9771 6.30859 35.3152 4.36759 34.6895 2.69155C34.0662 1.01839 32.6053 -0.0500919 31.0132 0.00180971L31.0131 0.00191939Z" fill="#2AC940"/>
</svg>
