<svg width="80" height="80" viewBox="0 0 80 80" fill="none" xmlns="http://www.w3.org/2000/svg">
<rect x="13.5" y="14.5" width="55.5957" height="51" rx="3.5" stroke="#1869C8" stroke-width="3"/>
<path d="M41.2981 14.8967L41.2981 65.0241" stroke="#1869C8" stroke-width="3" stroke-linecap="square"/>
<path d="M30.6401 37.1277H13.9465V40.5745H30.6401V37.1277Z" fill="#1869C8"/>
<path d="M24.5822 44.9106C24.0949 45.7282 24.3627 46.7861 25.1803 47.2733V47.2733C25.9979 47.7606 27.0557 47.4928 27.543 46.6752L31.5539 39.9453C31.7385 39.6356 31.7421 39.2506 31.5634 38.9375L27.5314 31.8749C27.0595 31.0483 26.0069 30.7607 25.1803 31.2326V31.2326C24.3537 31.7045 24.0661 32.7571 24.538 33.5837L27.8623 39.4068L24.5822 44.9106Z" fill="#1869C8"/>
<path d="M51.604 37.1278H68.2977V40.5746H51.604V37.1278Z" fill="#1869C8"/>
<path d="M57.662 44.9107C58.1493 45.7283 57.8815 46.7862 57.0639 47.2735V47.2735C56.2462 47.7607 55.1884 47.493 54.7011 46.6753L50.6902 39.9454C50.5057 39.6357 50.5021 39.2507 50.6808 38.9377L54.7127 31.875C55.1846 31.0484 56.2373 30.7608 57.0639 31.2327V31.2327C57.8905 31.7046 58.178 32.7572 57.7061 33.5838L54.3818 39.4069L57.662 44.9107Z" fill="#1869C8"/>
</svg>
