<svg width="60" height="61" viewBox="0 0 60 61" fill="none" xmlns="http://www.w3.org/2000/svg">
<path d="M32.6999 34.2194C32.0389 34.2194 31.4999 34.7584 31.4999 35.4194V40.9999C31.4999 42.3194 30.1804 42.4999 29.3999 42.4999H18.8999C18.1194 42.4999 16.7999 42.3194 16.7999 40.9999V19.9999C16.7999 18.6803 18.1194 18.4999 18.8999 18.4999H29.3999C30.1804 18.4999 31.4999 18.6803 31.4999 19.9999V25.5803C31.4999 26.2413 32.039 26.7803 32.6999 26.7803C33.3608 26.7803 33.8999 26.2413 33.8999 25.5803V19.9999C33.8999 17.8389 32.1609 16.0999 29.9999 16.0999H18.2999C16.1389 16.0999 14.3999 17.8389 14.3999 19.9999V40.9999C14.3999 43.1608 16.1389 44.8999 18.2999 44.8999H29.9999C32.1609 44.8999 33.8999 43.1608 33.8999 40.9999V35.4194C33.8999 34.7608 33.4194 34.2194 32.6999 34.2194Z" fill="white"/>
<path d="M49.0107 22.7C48.5302 22.2195 47.7497 22.2195 47.3302 22.7C46.8497 23.1804 46.8497 23.9 47.3302 24.3804L52.2497 29.3H36.8909C36.23 29.3 35.6909 29.839 35.6909 30.5C35.6909 31.1609 36.23 31.7 36.8909 31.7H52.1909L47.3909 36.5C46.9104 36.9804 46.9104 37.7 47.3909 38.1804C47.63 38.4195 47.93 38.5414 48.23 38.5414C48.5299 38.5414 48.83 38.4218 49.069 38.1804L56.8102 30.561L49.0107 22.7Z" fill="white"/>
</svg>
