<svg width="79" height="80" viewBox="0 0 79 80" fill="none" xmlns="http://www.w3.org/2000/svg">
<path d="M39.5823 5.58979C36.5156 5.58979 33.4457 6.21974 30.5356 7.39976C24.7155 9.83969 20.1524 14.3231 17.7924 20.143C15.3524 25.9631 15.3524 32.4166 17.7924 38.2364C21.2524 46.5767 29.0425 52.1597 37.9327 52.7898V61.7563C35.1793 62.463 33.1327 64.9829 33.1327 67.9697C33.1327 71.5097 36.0428 74.4197 39.5828 74.4197C43.1228 74.4197 46.0328 71.5097 46.0328 67.9697C46.0328 64.9797 43.9862 62.463 41.2329 61.7563L41.236 52.7898C43.7527 52.6331 46.1926 52.0031 48.5526 51.0598C54.3727 48.6198 58.9359 44.1364 61.2959 38.3165C63.7358 32.4964 63.7358 26.0429 61.2959 20.2231C57.7559 11.333 49.1796 5.58948 39.5822 5.58948L39.5823 5.58979ZM53.0359 35.9568C53.586 33.5968 53.8226 31.3167 53.8226 29.1902C53.8226 26.9869 53.586 24.7068 53.1926 22.5035H58.6993C60.2727 26.8302 60.2727 31.5502 58.6993 35.9571L53.0359 35.9568ZM20.4662 35.9568C18.8929 31.6301 18.8929 26.9101 20.4662 22.5032H26.2096C25.8162 24.7065 25.5796 26.9098 25.5796 29.1899C25.5796 31.2365 25.893 33.5965 26.3663 35.9565L20.4662 35.9568ZM28.8828 29.1902C28.8828 26.9101 29.1194 24.6269 29.5896 22.5035H37.9299V35.9571H29.7501C29.2 33.674 28.8835 31.314 28.8835 29.1905L28.8828 29.1902ZM41.2359 9.28667C44.3026 10.31 47.1359 14.1634 48.8659 19.2003H41.2359V9.28667ZM37.9294 9.36656V19.1197H30.536C32.1893 14.243 34.9426 10.4663 37.9294 9.36656ZM37.9294 39.26V48.9368C35.0962 47.7568 32.5027 43.8235 30.7695 39.26H37.9294ZM41.2359 49.0131V39.26H48.5525C46.8993 43.98 44.1459 47.9936 41.2359 49.0131ZM41.2359 35.956V22.5024H49.809C50.2822 24.6257 50.5158 26.909 50.5158 29.1891C50.5158 31.3924 50.2023 33.6724 49.6492 35.9557L41.2359 35.956ZM57.2029 19.1991H52.403C51.773 17.0758 50.9863 15.1091 49.963 13.379C49.4898 12.5125 49.0197 11.8057 48.4696 11.099C52.0896 12.8259 55.1594 15.5793 57.2032 19.1993L57.2029 19.1991ZM31.0092 10.8589C30.4591 11.5656 29.9091 12.4322 29.4358 13.2988C28.4925 15.0288 27.6259 17.0754 26.9959 19.1189H21.9625C24.0859 15.5789 27.1527 12.6688 31.0092 10.8589ZM21.9625 39.2592H27.2325C28.2558 42.4059 29.7493 45.4726 31.5592 47.8323C27.6259 46.1821 24.2426 43.1922 21.9626 39.2592H21.9625ZM42.729 67.9726C42.729 69.7027 41.3123 71.1193 39.5823 71.1193C37.8523 71.1193 36.4356 69.7027 36.4356 67.9726C36.4356 66.2426 37.8523 64.826 39.5823 64.826C41.3123 64.826 42.729 66.2426 42.729 67.9726ZM47.9223 47.6758C49.6523 45.3158 51.0689 42.3258 52.0922 39.2592H57.1257C55.0791 42.9559 51.8556 45.866 47.9224 47.6758H47.9223ZM30.5353 66.7926C30.8487 67.1061 31.0085 67.4994 31.0085 67.9726C31.0085 68.4459 30.8518 68.8392 30.5353 69.1526C30.2219 69.4661 29.8285 69.6259 29.3553 69.6259C28.8821 69.6259 28.4887 69.4692 28.1753 69.1526C27.8618 68.8392 27.7021 68.4459 27.7021 67.9726C27.7021 67.4994 27.8588 67.106 28.1753 66.7926C28.4887 66.4792 28.8821 66.3194 29.3553 66.3194C29.8285 66.3194 30.2219 66.4792 30.5353 66.7926ZM25.5786 67.9726C25.5786 68.916 24.8719 69.6259 23.9254 69.6259C22.982 69.6259 22.2721 68.9191 22.2721 67.9726C22.2721 67.0293 22.9789 66.3194 23.9254 66.3194C24.8719 66.3194 25.5786 67.106 25.5786 67.9726ZM19.6786 66.7926C19.9921 67.1061 20.1519 67.4994 20.1519 67.9726C20.1519 68.4459 19.9951 68.8392 19.6786 69.1526C19.3652 69.4661 18.9719 69.6259 18.4986 69.6259C18.0254 69.6259 17.632 69.4692 17.3186 69.1526C17.0052 68.8392 16.8454 68.4459 16.8454 67.9726C16.8454 67.4994 17.0021 67.106 17.3186 66.7926C17.6321 66.4792 18.0254 66.3194 18.4986 66.3194C18.9719 66.3194 19.3652 66.4792 19.6786 66.7926ZM61.8457 66.7926C62.1591 67.1061 62.3189 67.4994 62.3189 67.9726C62.3189 68.4459 62.1622 68.8392 61.8457 69.1526C61.5322 69.4661 61.1389 69.6259 60.6657 69.6259C60.1924 69.6259 59.7991 69.4692 59.4857 69.1526C59.1722 68.8392 59.0124 68.4459 59.0124 67.9726C59.0124 67.4994 59.1692 67.106 59.4857 66.7926C59.7991 66.4792 60.1924 66.3194 60.6657 66.3194C61.059 66.3194 61.5292 66.4792 61.8457 66.7926ZM56.889 67.9726C56.889 68.916 56.1823 69.6259 55.2358 69.6259C54.2924 69.6259 53.5825 68.9191 53.5825 67.9726C53.5825 67.0293 54.3692 66.3194 55.2358 66.3194C56.1822 66.3194 56.889 67.106 56.889 67.9726ZM50.989 66.7926C51.3024 67.1061 51.4622 67.4994 51.4622 67.9726C51.4622 68.4459 51.3055 68.8392 50.989 69.1526C50.6756 69.4661 50.2822 69.6259 49.809 69.6259C49.3358 69.6259 48.9424 69.4692 48.629 69.1526C48.3156 68.8392 48.1558 68.4459 48.1558 67.9726C48.1558 67.4994 48.3125 67.106 48.629 66.7926C48.9424 66.4792 49.3358 66.3194 49.809 66.3194C50.2822 66.3194 50.6756 66.4792 50.989 66.7926Z" fill="white"/>
</svg>
