<svg width="123" height="122" viewBox="0 0 123 122" fill="none" xmlns="http://www.w3.org/2000/svg">
<path fill-rule="evenodd" clip-rule="evenodd" d="M61.5 122C94.6371 122 121.5 95.1371 121.5 62C121.5 28.8629 94.6371 2 61.5 2C28.3629 2 1.5 28.8629 1.5 62C1.5 95.1371 28.3629 122 61.5 122Z" fill="white"/>
<mask id="mask0" mask-type="alpha" maskUnits="userSpaceOnUse" x="1" y="2" width="121" height="120">
<path fill-rule="evenodd" clip-rule="evenodd" d="M61.5 122C94.6371 122 121.5 95.1371 121.5 62C121.5 28.8629 94.6371 2 61.5 2C28.3629 2 1.5 28.8629 1.5 62C1.5 95.1371 28.3629 122 61.5 122Z" fill="white"/>
</mask>
<g mask="url(#mask0)">
</g>
<path fill-rule="evenodd" clip-rule="evenodd" d="M122.5 61C122.5 94.6894 95.1894 122 61.5 122C27.8106 122 0.5 94.6894 0.5 61C0.5 27.3106 27.8106 0 61.5 0C95.1894 0 122.5 27.3106 122.5 61ZM6.63065 61C6.63065 91.3035 31.1965 115.869 61.5 115.869C91.8035 115.869 116.369 91.3035 116.369 61C116.369 30.6965 91.8035 6.13065 61.5 6.13065C31.1965 6.13065 6.63065 30.6965 6.63065 61Z" fill="#1869C8"/>
<mask id="mask1" mask-type="alpha" maskUnits="userSpaceOnUse" x="0" y="0" width="123" height="122">
<path fill-rule="evenodd" clip-rule="evenodd" d="M122.5 61C122.5 94.6894 95.1894 122 61.5 122C27.8106 122 0.5 94.6894 0.5 61C0.5 27.3106 27.8106 0 61.5 0C95.1894 0 122.5 27.3106 122.5 61ZM6.63065 61C6.63065 91.3035 31.1965 115.869 61.5 115.869C91.8035 115.869 116.369 91.3035 116.369 61C116.369 30.6965 91.8035 6.13065 61.5 6.13065C31.1965 6.13065 6.63065 30.6965 6.63065 61Z" fill="white"/>
</mask>
<g mask="url(#mask1)">
</g>
<path fill-rule="evenodd" clip-rule="evenodd" d="M47.8339 82.2311C45.5059 87.5476 34.5 86.9084 34.5 80.1041V53.3143C34.5 47.5744 45.0824 46.9354 47.6237 51.1872C52.4927 48.8485 57.9959 45.2334 57.3592 39.0685C56.0887 27.5866 65.8246 28.863 69.2122 39.7055C70.4827 43.7458 69.6357 46.7212 68.5781 50.1249H84.0296C90.1667 50.3365 91.0136 57.7802 87.2046 60.3303C89.322 62.8828 88.4751 67.56 85.0872 69.2594C87.2046 72.0234 85.7213 76.9147 82.7591 78.4023C84.2402 81.1664 82.5485 85.632 76.8323 85.8437C67.3071 86.2691 56.7247 86.0553 47.8361 82.2288L47.8339 82.2311ZM46.14 80.1041C46.14 84.9952 36.6148 84.9952 36.6148 80.1041V53.3143C36.6148 49.4878 46.14 49.6994 46.14 53.3143V80.1041ZM76.6197 83.719C67.0944 84.356 56.7228 84.1444 48.2574 80.1041L48.2592 80.1019V53.3121C54.1837 50.3369 60.1102 45.8707 59.4761 38.855C58.4184 29.9234 64.7687 32.2624 67.0968 40.3428C68.4659 44.4709 67.4856 47.145 65.9914 51.2205C65.8693 51.5538 65.7437 51.8963 65.6157 52.2498H84.0295C88.6856 52.2498 88.6856 59.0544 84.0295 59.0544H79.1605C77.6794 59.0544 77.4666 60.756 79.1605 60.756H82.9697C88.0494 60.756 86.781 67.9857 82.3356 67.9857H77.6795C76.1984 67.9857 76.1984 69.6873 77.6795 69.6873H81.278C85.9341 69.6873 84.0295 76.4914 81.278 76.703H75.9856C74.5045 76.703 74.9279 78.1909 75.9856 78.1909H78.7371C82.3335 78.1909 82.5465 83.5074 76.6197 83.719Z" fill="#1869C8"/>
</svg>
