<svg width="85" height="70" viewBox="0 0 85 70" fill="none" xmlns="http://www.w3.org/2000/svg">
<path d="M42.5344 0C68.8228 0 84.9892 4.14123 84.849 30.5997C84.9545 55.4262 68.8228 70 42.4992 70C16.2464 70 0.149902 55.4466 0.149902 30.6202C0.150384 4.14123 16.2469 0 42.5344 0Z" fill="#0097D5"/>
<path d="M40.7316 4.19995C64.5 4.19995 79.9498 7.22503 79.9498 30.977C79.9144 55.1563 64.4995 66.5 40.6957 66.5C17.0001 66.5 1.5498 55.1767 1.5498 30.9974C1.58569 7.22455 17.0006 4.19995 40.7316 4.19995V4.19995Z" fill="#0097D5"/>
<path d="M9.9502 37.092C9.9502 22.5252 16.322 19.6 42.5002 19.6C68.6789 19.6 75.0502 22.505 75.0502 37.0729C75.0502 53.4059 59.1756 62.3 42.4637 62.3C25.7883 62.3 9.9502 53.4261 9.9502 37.092Z" fill="white"/>
<path fill-rule="evenodd" clip-rule="evenodd" d="M14.1499 47.8198L14.1515 47.7015C14.2226 42.3145 14.294 36.908 14.4008 31.5L17.8735 31.5611L17.8851 31.5833L17.8852 31.5834C19.8857 35.3967 21.8867 39.2109 23.8873 42.9826C23.8873 43.0035 23.8873 43.0035 23.9231 43.0035C23.9581 39.3345 24.0271 35.6472 24.0966 31.94L24.1018 31.6634L27.1455 31.7245L49.0546 31.9683C49.0193 33.0042 49.0193 34.0411 49.0193 35.0571C41.7154 34.915 34.4125 34.7725 27.1096 34.6096L26.8946 48.0235C25.7847 48.0036 24.711 47.9838 23.6369 47.9629C23.2998 47.3292 22.9626 46.6961 22.6256 46.0632L22.6244 46.0609C20.8865 42.7973 19.1524 39.5407 17.4435 36.2563H17.4076L17.4032 36.4964L17.4032 36.4965C17.333 40.2971 17.2635 44.0593 17.2284 47.8616C16.2065 47.8606 15.1842 47.8403 14.196 47.8208L14.1499 47.8198ZM27.7903 41.7426C27.8198 40.0776 28.2915 38.634 29.2223 37.4556C30.1531 36.2767 31.5856 35.6979 33.4825 35.7275C35.4157 35.7585 36.8163 36.4157 37.6352 37.6989C38.4629 38.9954 38.8487 40.5642 38.8163 42.4542C38.8144 42.5897 38.815 42.7165 38.8157 42.8403V42.8405V42.8406V42.8408V42.8409V42.8411V42.8413V42.8414C38.816 42.9024 38.8163 42.9626 38.8163 43.0228L38.4668 43.0175L38.4666 43.0175L38.4664 43.0175L38.4663 43.0175L38.4661 43.0175L38.4659 43.0175L38.4657 43.0175L38.4655 43.0175C35.8977 42.9786 33.3313 42.9397 30.7977 42.8808C30.941 44.8731 31.836 45.8784 33.5183 45.909C34.0191 45.9181 34.4084 45.7787 34.7712 45.543C35.16 45.2915 35.3799 44.9953 35.5233 44.6283C36.5615 44.6491 37.5993 44.669 38.6376 44.669C38.2798 45.8688 37.6406 46.8125 36.7402 47.4737C35.8158 48.1528 34.7348 48.4739 33.4825 48.449C29.616 48.3737 27.7128 46.1528 27.7903 41.7426ZM35.7014 40.9511L30.9763 40.8895C31.0838 40.0969 31.3391 39.4708 31.7284 39.0203C32.1265 38.5571 32.6945 38.3393 33.3749 38.3494C34.0549 38.3581 34.5821 38.6019 34.9856 39.06C35.4054 39.5375 35.6656 40.1575 35.7014 40.9511ZM38.8161 44.3651L38.9578 44.3678C39.9489 44.3868 40.9411 44.4058 41.9663 44.4058C41.9663 45.5837 42.7906 46.1844 44.4376 46.2144C45.0817 46.2251 45.5824 46.1131 45.9045 45.8693C46.2265 45.6249 46.4057 45.3404 46.4057 45.035C46.4057 44.5875 46.1907 44.2831 45.7616 44.1411C45.3326 43.9991 44.5083 43.7543 43.1833 43.4092C41.8593 43.064 40.8922 42.6365 40.2481 42.1284C39.604 41.6204 39.3016 40.8676 39.3173 39.8724C39.337 38.6737 39.7425 37.7121 40.5702 36.9664C41.3885 36.2288 42.5756 35.8837 44.1151 35.9097C47.3723 35.9642 49.0547 37.3324 49.198 39.9737C48.5427 39.9612 47.9011 39.9483 47.2648 39.9354L46.1558 39.9132C46.1195 39.425 45.9766 39.0392 45.6899 38.775C45.4042 38.5113 44.902 38.3764 44.1868 38.3683C42.9693 38.3566 42.3252 38.7144 42.3252 39.4657C42.3252 39.933 43.0797 40.3504 44.6163 40.7256C46.1583 41.1023 47.3296 41.5339 48.1966 41.9864C49.0837 42.4486 49.5024 43.288 49.4852 44.5463C49.4671 45.8479 48.9791 46.8578 48.0537 47.5755C47.118 48.3004 45.905 48.6623 44.3306 48.6323C42.7547 48.6012 41.3944 48.2245 40.3561 47.5139C39.3178 46.8033 38.8161 45.7471 38.8161 44.3651ZM50.9527 38.6335L50.8451 45.9497C50.8098 46.8237 51.015 47.4839 51.4175 47.9217C51.8373 48.3777 52.6704 48.5946 53.9237 48.6124C53.9935 48.6137 54.0795 48.6133 54.1706 48.6129H54.1707H54.1709H54.171H54.1711C54.2188 48.6126 54.2679 48.6124 54.3169 48.6124C54.4704 48.6124 54.6032 48.6064 54.7265 48.6009L54.7266 48.6008H54.7266H54.7267L54.7268 48.6008C54.8337 48.596 54.9334 48.5915 55.0332 48.5915H55.7494C55.7494 47.8 55.7494 47.0069 55.7848 46.1935H55.4627C55.4095 46.1935 55.3567 46.2038 55.3035 46.2142C55.2498 46.2247 55.1957 46.2353 55.1407 46.2353C54.5683 46.2353 54.2462 46.1538 54.1024 46.0316C53.9595 45.909 53.9183 45.6448 53.9242 45.2182C53.9446 43.7347 53.9703 42.2508 53.9961 40.7605L53.9961 40.7585L53.9963 40.7464L53.9966 40.7335C54.0084 40.0487 54.0203 39.3627 54.0317 38.6747C54.6758 38.6956 55.285 38.6956 55.929 38.6956H55.9291C55.9291 37.9626 55.9291 37.2113 55.9644 36.4386C55.3199 36.4386 54.7111 36.4187 54.1024 36.3978C54.1024 34.9925 54.1369 33.5861 54.1713 32.1807V32.1807V32.1806V32.1806L54.1713 32.1801L54.1741 32.0691L53.1306 32.0489C52.4296 32.0354 51.7285 32.0219 51.0597 32.008L51.0555 32.1808V32.1809V32.1811V32.1812V32.1814C51.0215 33.5855 50.988 34.971 50.988 36.3566C50.4509 36.3566 49.9139 36.3368 49.4126 36.3159C49.3773 37.0896 49.3773 37.8608 49.3773 38.6126C49.8785 38.6335 50.4156 38.6335 50.9527 38.6335ZM56.5014 48.5111L56.5772 44.687L56.5777 44.6598L56.5778 44.6557L56.5778 44.6549C56.6598 40.5196 56.7418 36.3875 56.8234 32.232C57.8254 32.2523 58.8283 32.2727 59.8666 32.2727C59.7591 37.6994 59.6874 43.1455 59.6162 48.5717L56.5014 48.5111ZM61.9439 37.9834C61.0185 39.1664 60.5305 40.6054 60.5114 42.2913C60.4593 46.7015 62.3376 48.9372 66.204 48.9993C67.4205 49.0181 68.5202 48.6781 69.4254 48.0229C70.3454 47.3576 70.9645 46.4378 71.3587 45.2182C70.285 45.2182 69.2463 45.1984 68.2089 45.1785C68.1005 45.5435 67.8506 45.8693 67.4927 46.1131C67.1348 46.3569 66.7043 46.4623 66.2394 46.4582C64.5212 46.4434 63.6257 45.4213 63.5182 43.431C65.9922 43.4876 68.4657 43.526 70.9683 43.5648L70.9687 43.5648L71.5015 43.573C71.5015 43.513 71.5012 43.4528 71.5009 43.3918V43.3917V43.3915V43.3912V43.3909C71.5002 43.2666 71.4996 43.1391 71.5015 43.0035C71.5344 41.1134 71.1441 39.5278 70.3204 38.2471C69.4976 36.9674 68.1009 36.3164 66.1677 36.2965C64.2708 36.2762 62.8442 36.83 61.9439 37.9834ZM63.662 41.4173C65.2364 41.4581 66.8117 41.4789 68.3871 41.4998C68.3517 40.7062 68.1112 40.047 67.7072 39.5889C67.2874 39.1114 66.7396 38.887 66.0965 38.8783C65.3802 38.8676 64.8068 39.0809 64.4136 39.5482C64.0194 40.0155 63.769 40.6456 63.662 41.4173ZM70.3562 32.3333C67.5997 32.5771 64.8785 32.8209 62.1583 33.0647C61.0125 33.3086 60.583 35.2393 62.122 35.2591C64.8432 35.3207 67.5633 35.3615 70.2845 35.4022C71.716 35.4022 72.1819 32.3735 70.3562 32.3333Z" fill="#D35D35"/>
<path fill-rule="evenodd" clip-rule="evenodd" d="M40.6404 14.4013C40.6404 15.0048 39.7311 15.571 38.3853 15.571C36.3122 15.571 34.8931 14.1934 34.8936 12.0037C34.8936 9.79613 36.4209 8.40002 38.4217 8.40002C39.6947 8.40002 40.5676 8.92841 40.5676 9.47523C40.5676 9.83441 40.2404 10.1742 39.8767 10.1742C39.6954 10.1742 39.4991 10.1199 39.2845 10.0604C39.0256 9.98868 38.7399 9.90956 38.4217 9.90956C37.3667 9.90956 36.6394 10.721 36.6394 12.042C36.6394 13.3067 37.3667 14.0988 38.4581 14.0988C38.8585 14.0988 39.1856 13.9785 39.4608 13.8773C39.6604 13.8039 39.8326 13.7406 39.9855 13.7406C40.3132 13.7406 40.6404 14.0615 40.6404 14.4013ZM29.7276 8.72094C29.336 8.73142 28.9439 8.73336 28.5519 8.7353C28.3254 8.73642 28.0989 8.73754 27.8725 8.74031C26.9632 8.75118 26.7697 9.09808 26.7811 9.87223C26.7893 10.4013 26.7946 10.9283 26.7999 11.4539L26.7999 11.4543V11.4544C26.8105 12.5034 26.8211 13.5469 26.854 14.5899C26.8769 15.3257 27.1089 15.5441 27.9818 15.5332C28.2912 15.5294 28.6009 15.5221 28.9154 15.5146H28.9154H28.9154H28.9154H28.9154H28.9154H28.9154H28.9154C29.2286 15.5072 29.5465 15.4997 29.8733 15.4954C30.6729 15.485 31.037 15.2501 31.037 14.7785C31.037 14.3068 30.6365 14.0761 29.8733 14.0988C29.4004 14.113 28.9275 14.1182 28.4911 14.1182C28.4547 13.7028 28.4547 13.2689 28.4547 12.8351C28.6983 12.8351 28.9583 12.8295 29.2237 12.8239C29.3544 12.8211 29.4864 12.8183 29.6184 12.8162C30.3816 12.8043 30.7462 12.5709 30.7462 12.0798C30.7462 11.6081 30.3457 11.3766 29.5825 11.4007C29.1947 11.4131 28.8067 11.4194 28.4187 11.4196V10.1931C28.8552 10.1931 29.2917 10.1875 29.7281 10.1742C30.5282 10.1501 30.8919 9.90956 30.8919 9.41899C30.8919 8.92889 30.4913 8.70014 29.7276 8.72094ZM26.1991 14.7028C26.2216 15.3059 25.3242 15.8778 23.9804 15.9293C21.9063 16.0091 20.4333 14.6641 20.343 12.4763C20.2523 10.2867 21.7617 8.80884 23.726 8.74031C24.9985 8.69588 25.9083 9.21198 25.9083 9.77817C25.9083 10.1553 25.617 10.4862 25.2534 10.4951C25.0742 10.4992 24.8804 10.4539 24.6687 10.4045C24.4076 10.3435 24.1195 10.2762 23.7983 10.2872C22.7433 10.3236 22.0335 11.1379 22.0889 12.4574C22.1418 13.7222 22.889 14.4731 23.9804 14.4386C24.3775 14.4261 24.6909 14.3037 24.9615 14.198C25.1614 14.1199 25.338 14.0509 25.5078 14.0421C25.8355 14.0251 26.1852 14.3243 26.1991 14.7028ZM19.3793 12.6056C19.4122 13.3925 19.4451 14.1795 19.4696 14.9666C19.4925 15.7024 19.2511 16.08 18.6695 16.0994C18.1238 16.1169 17.8674 15.7596 17.833 15.0237C17.7586 13.4391 17.7008 11.8534 17.6514 10.2683C17.6284 9.53241 17.8694 9.15479 18.4151 9.13636C18.9967 9.11698 19.2651 9.47523 19.288 10.2116C19.3126 11.0094 19.346 11.8074 19.3793 12.6055L19.3793 12.6055L19.3793 12.6055L19.3793 12.6056ZM42.9319 11.6838V10.0046H43.6966C44.3511 10.0046 44.7147 10.3066 44.7147 10.816C44.7147 11.3444 44.3511 11.6838 43.6966 11.6838H42.9319ZM44.8237 14.9481C44.1633 14.199 43.5512 13.4575 42.9317 12.7027V14.3626C42.9317 15.0989 42.6768 15.4571 42.1316 15.4571C41.5495 15.4571 41.2951 15.0989 41.2951 14.3626V9.66427C41.2951 8.90951 41.5131 8.5886 42.4224 8.5886H43.6964C45.4786 8.5886 46.4244 9.4568 46.4244 10.7021C46.4244 11.6644 45.8059 12.3818 44.7144 12.5515C44.8993 12.7433 45.087 12.9327 45.2739 13.1213L45.2739 13.1213L45.2739 13.1214L45.2739 13.1214L45.2743 13.1217C45.5285 13.3783 45.7813 13.6335 46.0238 13.8914C46.3316 14.2175 46.4972 14.5327 46.4972 14.778C46.4972 15.1745 46.17 15.5143 45.7335 15.5143C45.4063 15.5143 45.1444 15.3116 44.8237 14.9481ZM50.2803 8.6836H48.4616C47.5528 8.6836 47.3343 9.00403 47.3343 9.7588V14.4949C47.3343 15.2312 47.5528 15.4765 48.4257 15.4765H50.3167C51.1173 15.4765 51.4809 15.2312 51.4809 14.7596C51.4809 14.2685 51.1173 14.0421 50.3167 14.0421H48.9714V12.7783H50.0987C50.8624 12.7783 51.2629 12.5326 51.2629 12.042C51.2629 11.5703 50.8624 11.3246 50.0987 11.3246H48.9714V10.117H50.2808C51.0445 10.117 51.445 9.89066 51.445 9.39961C51.4445 8.90998 51.044 8.6836 50.2803 8.6836ZM54.0996 12.797L54.0995 12.7972C54.6692 12.8192 55.2392 12.8318 55.8094 12.8351C55.5191 12.0074 55.2654 11.161 55.0118 10.315L55.0093 10.3066C54.6821 11.1364 54.3908 11.9667 54.0996 12.797ZM53.5899 14.2118C54.4629 14.2312 55.3368 14.2501 56.2456 14.2685C56.2816 14.476 56.3539 14.6839 56.4277 14.8914C56.6078 15.4009 56.8642 15.6646 57.3006 15.6646C57.7371 15.6646 58.1007 15.4009 58.1007 14.9476C58.1007 14.8158 58.0658 14.6641 57.9915 14.4571C57.4106 12.8251 56.8406 11.1897 56.2816 9.55084C56.08 8.96055 55.663 8.65382 55.0814 8.64484C54.4998 8.63539 54.1147 8.95251 53.8448 9.62599C53.2049 11.2165 52.5501 12.8015 51.8805 14.381C51.818 14.5253 51.7811 14.6785 51.7713 14.8342C51.7438 15.2482 52.0985 15.5602 52.535 15.5701C52.8986 15.5786 53.1894 15.3626 53.3351 14.9094L53.3485 14.8682L53.3485 14.8681C53.4178 14.6559 53.4873 14.4426 53.5899 14.2118ZM58.2465 14.9481C58.2465 14.8352 58.2789 14.6636 58.3188 14.4764C58.5155 13.5473 58.7347 12.6196 58.9541 11.6911C59.0958 11.0917 59.2375 10.4919 59.3733 9.89113C59.5349 9.17748 59.8467 8.83294 60.5375 8.85326C61.1202 8.87028 61.4938 9.19166 61.6289 9.81504C61.9292 11.183 62.2444 12.548 62.5747 13.9098C62.9454 12.5593 63.3335 11.2132 63.7389 9.87175C63.9145 9.28571 64.2846 8.98607 64.9032 9.00403C65.593 9.0234 65.8993 9.39866 65.9946 10.1548C66.0101 10.2787 66.0255 10.4027 66.041 10.5266C66.2209 11.9678 66.4013 13.4127 66.6121 14.8536C66.6376 15.0247 66.654 15.1372 66.649 15.2312C66.6181 15.7407 66.2849 16.0148 65.7761 16.0044C65.3396 15.9959 65.0788 15.6845 65.0114 15.08C64.8763 13.8576 64.7783 12.6338 64.6804 11.4108C64.6695 11.2752 64.6587 11.1397 64.6478 11.0041C63.8841 13.7401 63.4107 15.287 63.1563 15.6462C63.0112 15.8527 62.7917 15.9175 62.4655 15.9104C61.9203 15.8986 61.6599 15.666 61.5197 15.08C61.204 13.7546 60.9306 12.4262 60.6543 11.0831L60.6109 10.8723C60.4688 11.6094 60.3442 12.3478 60.2203 13.0822C60.1222 13.6634 60.0246 14.2421 59.919 14.8158C59.7943 15.4987 59.519 15.7979 59.0102 15.778C58.5737 15.761 58.2465 15.4576 58.2465 14.9481Z" fill="white"/>
</svg>
