<svg width="529" height="438" viewBox="0 0 529 438" fill="none" xmlns="http://www.w3.org/2000/svg">
<path d="M264.715 0C428.902 0 529.87 25.8644 528.994 191.113C529.654 346.168 428.902 437.19 264.496 437.19C100.532 437.19 0 346.296 0 191.241C0.00300994 25.8644 100.535 0 264.715 0Z" fill="#0097D5"/>
<path d="M253.452 26.2339C401.899 26.2339 498.392 45.1273 498.392 193.472C498.171 344.485 401.896 415.333 253.228 415.333C105.235 415.333 8.73926 344.613 8.73926 193.599C8.96338 45.1242 105.239 26.2339 253.452 26.2339V26.2339Z" fill="#0097D5"/>
<path d="M61.1992 231.66C61.1992 140.682 100.995 122.413 264.493 122.413C427.994 122.413 467.786 140.556 467.786 231.541C467.786 333.55 368.64 389.099 264.265 389.099C160.117 389.099 61.1992 333.676 61.1992 231.66Z" fill="white"/>
<path fill-rule="evenodd" clip-rule="evenodd" d="M87.4365 298.664L87.4463 297.925L87.4463 297.925C87.8907 264.28 88.3367 230.513 89.0033 196.737L110.693 197.119L110.765 197.258C123.26 221.074 135.757 244.896 148.252 268.453C148.252 268.583 148.252 268.583 148.476 268.583C148.694 245.669 149.126 222.639 149.559 199.486L149.559 199.485L149.592 197.758L168.601 198.139L305.437 199.662C305.216 206.132 305.216 212.608 305.216 218.953C259.599 218.066 213.988 217.176 168.378 216.159L167.035 299.936C160.102 299.812 153.397 299.688 146.688 299.557C144.58 295.595 142.472 291.636 140.365 287.679C129.511 267.295 118.68 246.956 108.007 226.443H107.783L107.755 227.943V227.943V227.943V227.943V227.943V227.943V227.943C107.317 251.68 106.883 275.177 106.664 298.925C100.282 298.919 93.8972 298.792 87.726 298.67H87.7255H87.7251H87.7248H87.7244H87.7241H87.7238H87.7235L87.4365 298.664ZM172.619 260.709C172.803 250.31 175.75 241.294 181.563 233.935C187.376 226.572 196.323 222.957 208.17 223.141C220.245 223.335 228.992 227.44 234.106 235.454C239.276 243.552 241.686 253.35 241.483 265.154C241.471 266.003 241.475 266.797 241.479 267.572L241.479 267.577C241.481 267.956 241.483 268.331 241.483 268.705L239.298 268.672L239.297 268.672L239.296 268.672L239.295 268.672L239.294 268.672L239.293 268.672L239.292 268.672L239.292 268.672C223.254 268.429 207.226 268.186 191.402 267.818C192.297 280.261 197.887 286.54 208.394 286.731C211.522 286.788 213.953 285.917 216.219 284.445C218.647 282.874 220.021 281.024 220.916 278.732C227.401 278.862 233.882 278.986 240.367 278.986C238.132 286.48 234.14 292.374 228.517 296.503C222.743 300.744 215.992 302.751 208.17 302.595C184.022 302.124 172.135 288.254 172.619 260.709ZM222.036 255.763L192.525 255.378C193.196 250.428 194.791 246.518 197.222 243.704C199.709 240.811 203.256 239.45 207.506 239.514C211.752 239.568 215.045 241.091 217.565 243.952C220.187 246.934 221.812 250.806 222.036 255.763ZM241.49 277.083L242.375 277.1L242.377 277.1C248.566 277.218 254.762 277.337 261.165 277.337C261.165 284.694 266.313 288.445 276.599 288.633C280.622 288.699 283.749 288 285.761 286.477C287.772 284.951 288.891 283.174 288.891 281.267C288.891 278.472 287.548 276.571 284.869 275.684C282.189 274.797 277.041 273.268 268.766 271.112C260.496 268.957 254.456 266.286 250.434 263.114C246.411 259.941 244.522 255.239 244.62 249.024C244.743 241.537 247.276 235.531 252.445 230.874C257.556 226.267 264.97 224.112 274.585 224.274C294.928 224.614 305.436 233.16 306.331 249.656C302.24 249.578 298.234 249.497 294.261 249.417C291.943 249.37 289.636 249.324 287.331 249.278C287.104 246.229 286.211 243.819 284.421 242.169C282.636 240.523 279.5 239.68 275.033 239.629C267.429 239.556 263.406 241.791 263.406 246.483C263.406 249.402 268.119 252.009 277.715 254.352C287.346 256.704 294.662 259.4 300.076 262.227C305.617 265.113 308.232 270.356 308.125 278.215C308.011 286.344 304.964 292.651 299.184 297.134C293.34 301.661 285.764 303.921 275.931 303.734C266.089 303.54 257.593 301.187 251.108 296.749C244.623 292.311 241.49 285.714 241.49 277.083ZM317.292 241.286L316.62 286.98C316.399 292.439 317.681 296.562 320.195 299.296C322.817 302.145 328.02 303.499 335.847 303.61C336.285 303.619 336.822 303.616 337.393 303.613C337.691 303.612 337.997 303.61 338.303 303.61C339.263 303.61 340.093 303.573 340.864 303.538H340.864H340.864H340.864H340.864C341.531 303.508 342.154 303.48 342.777 303.48H347.25C347.25 298.536 347.25 293.583 347.471 288.503H345.46C345.127 288.503 344.797 288.567 344.465 288.632C344.13 288.698 343.792 288.764 343.448 288.764C339.873 288.764 337.862 288.255 336.964 287.492C336.071 286.726 335.814 285.076 335.851 282.412C335.978 273.145 336.139 263.875 336.3 254.566L336.3 254.546C336.375 250.222 336.45 245.889 336.522 241.544C340.545 241.674 344.349 241.674 348.372 241.674H348.372C348.372 237.096 348.372 232.404 348.593 227.578C344.567 227.578 340.765 227.454 336.964 227.323C336.964 218.545 337.179 209.761 337.394 200.982L337.394 200.98L337.411 200.288C335.255 200.245 333.075 200.204 330.894 200.162C326.516 200.077 322.137 199.993 317.96 199.906L317.934 200.982C317.722 209.754 317.512 218.41 317.512 227.066C314.158 227.066 310.804 226.942 307.673 226.811C307.453 231.644 307.453 236.46 307.453 241.156C310.583 241.286 313.937 241.286 317.292 241.286ZM351.941 302.98L352.409 279.396C352.925 253.401 353.44 227.428 353.953 201.307C360.211 201.434 366.475 201.562 372.959 201.562C372.288 235.454 371.84 269.468 371.396 303.358L351.941 302.98ZM385.931 237.229C380.152 244.618 377.104 253.605 376.984 264.135C376.659 291.679 388.39 305.642 412.538 306.029C420.136 306.147 427.004 304.023 432.658 299.932C438.404 295.777 442.27 290.032 444.732 282.415C438.027 282.415 431.539 282.291 425.06 282.167C424.383 284.446 422.822 286.481 420.587 288.004C418.352 289.526 415.663 290.185 412.759 290.159C402.028 290.067 396.435 283.683 395.764 271.253C411.214 271.606 426.662 271.846 442.291 272.088L442.294 272.088L445.624 272.14C445.624 271.764 445.622 271.387 445.62 271.006V271.004V271.001C445.616 270.225 445.612 269.429 445.624 268.582C445.83 256.778 443.392 246.875 438.247 238.876C433.109 230.884 424.386 226.818 412.311 226.694C400.464 226.567 391.554 230.025 385.931 237.229ZM396.671 258.674C406.503 258.928 416.342 259.059 426.181 259.189C425.961 254.233 424.458 250.116 421.935 247.255C419.313 244.273 415.892 242.871 411.875 242.816C407.402 242.75 403.821 244.082 401.365 247C398.903 249.919 397.339 253.854 396.671 258.674ZM438.475 201.941C421.259 203.464 404.264 204.987 387.275 206.509C380.119 208.032 377.436 220.091 387.048 220.215C404.043 220.599 421.033 220.854 438.028 221.108C446.968 221.108 449.878 202.192 438.475 201.941Z" fill="#D35D35"/>
<path fill-rule="evenodd" clip-rule="evenodd" d="M252.892 89.9424C252.892 93.7118 247.213 97.248 238.808 97.248C225.86 97.248 216.997 88.6436 217 74.9681C217 61.1804 226.539 52.4609 239.035 52.4609C246.986 52.4609 252.438 55.761 252.438 59.1762C252.438 61.4195 250.394 63.5418 248.123 63.5418C246.99 63.5418 245.764 63.2023 244.424 62.8309C242.807 62.383 241.023 61.8889 239.035 61.8889C232.446 61.8889 227.904 66.957 227.904 75.2072C227.904 83.1061 232.446 88.0532 239.263 88.0532C241.763 88.0532 243.807 87.3018 245.525 86.6698C246.771 86.2113 247.847 85.8158 248.802 85.8158C250.849 85.8158 252.892 87.82 252.892 89.9424ZM184.726 54.4637C182.28 54.5292 179.831 54.5413 177.383 54.5534C175.968 54.5604 174.554 54.5674 173.14 54.5847C167.461 54.6526 166.252 56.8192 166.323 61.6542C166.374 64.9592 166.408 68.2513 166.441 71.5347V71.5352V71.5355C166.507 78.0873 166.573 84.6043 166.778 91.1186C166.922 95.7145 168.37 97.0782 173.822 97.0103C175.755 96.9867 177.689 96.9408 179.653 96.8942C181.609 96.8478 183.595 96.8007 185.636 96.7742C190.63 96.7092 192.904 95.2422 192.904 92.2964C192.904 89.3505 190.402 87.91 185.636 88.0517C182.682 88.1403 179.729 88.1728 177.003 88.1728C176.776 85.5782 176.776 82.8684 176.776 80.1587C178.297 80.1587 179.921 80.1243 181.578 80.0891H181.579H181.579H181.579H181.579H181.579L181.579 80.0891C182.395 80.0718 183.22 80.0543 184.044 80.0407C188.81 79.9669 191.088 78.5087 191.088 75.4418C191.088 72.496 188.586 71.0496 183.819 71.2001C181.398 71.2775 178.975 71.3169 176.551 71.3182V63.6584C179.277 63.6584 182.003 63.623 184.729 63.5403C189.726 63.3898 191.997 61.8873 191.997 58.8234C191.997 55.7624 189.496 54.3338 184.726 54.4637ZM162.693 91.8284C162.834 95.5948 157.229 99.1665 148.836 99.4882C135.882 99.987 126.683 91.5863 126.119 77.9227C125.552 64.2472 134.979 55.017 147.247 54.589C155.195 54.3115 160.877 57.5349 160.877 61.0711C160.877 63.4266 159.058 65.4928 156.787 65.5489C155.668 65.574 154.457 65.2913 153.135 64.9825C151.504 64.6019 149.705 64.1817 147.699 64.2501C141.11 64.4774 136.677 69.5633 137.023 77.8046C137.353 85.7035 142.02 90.3938 148.836 90.1783C151.316 90.1003 153.273 89.3357 154.964 88.6755L154.964 88.6755C156.212 88.1878 157.315 87.757 158.375 87.7018C160.422 87.5956 162.606 89.464 162.693 91.8284ZM120.098 78.729V78.7291V78.7291V78.7291V78.7292V78.7292V78.7292V78.7293V78.7293C120.303 83.6442 120.509 88.5595 120.662 93.4748C120.805 98.0707 119.297 100.429 115.665 100.55C112.256 100.659 110.655 98.4278 110.44 93.832C109.976 83.9347 109.615 74.0316 109.306 64.1314C109.163 59.5355 110.668 57.177 114.076 57.0619C117.708 56.9409 119.384 59.1783 119.528 63.7772C119.682 68.7604 119.89 73.7444 120.098 78.7287L120.098 78.729ZM267.206 72.9717V62.4841H271.982C276.069 62.4841 278.34 64.3703 278.34 67.5523C278.34 70.8523 276.069 72.9717 271.982 72.9717H267.206ZM279.011 93.3606C274.886 88.682 271.064 84.0507 267.194 79.3368V89.7033C267.194 94.3022 265.602 96.5396 262.197 96.5396C258.561 96.5396 256.973 94.3022 256.973 89.7033V60.3599C256.973 55.6459 258.334 53.6417 264.013 53.6417H271.97C283.101 53.6417 289.008 59.0641 289.008 66.842C289.008 72.8517 285.145 77.3325 278.329 78.3922C279.483 79.5899 280.655 80.7729 281.822 81.9511L281.823 81.9512C283.411 83.5546 284.991 85.1492 286.506 86.7604C288.429 88.7971 289.463 90.766 289.463 92.2979C289.463 94.7745 287.419 96.8968 284.693 96.8968C282.65 96.8968 281.014 95.6305 279.011 93.3606ZM313.097 54.2321H301.738C296.062 54.2321 294.697 56.2334 294.697 60.9473V90.5269C294.697 95.1257 296.062 96.6577 301.514 96.6577H313.324C318.324 96.6577 320.595 95.1257 320.595 92.1799C320.595 89.113 318.324 87.6991 313.324 87.6991H304.922V79.8061H311.963C316.732 79.8061 319.234 78.2712 319.234 75.2073C319.234 72.2614 316.732 70.7265 311.963 70.7265H304.922V63.1848H313.1C317.869 63.1848 320.371 61.7709 320.371 58.704C320.368 55.646 317.866 54.2321 313.097 54.2321ZM342.627 64.3653C340.583 69.5486 338.764 74.7348 336.944 79.9211C340.503 80.0583 344.063 80.1371 347.624 80.1572C345.811 74.9885 344.226 69.7025 342.643 64.419L342.627 64.3653ZM333.763 88.7553C339.215 88.8763 344.673 88.9944 350.349 89.1095C350.574 90.4053 351.025 91.7041 351.486 92.9999C352.611 96.1819 354.212 97.829 356.938 97.829C359.664 97.829 361.935 96.1819 361.935 93.3512C361.935 92.5276 361.717 91.5801 361.253 90.2873C357.625 80.0946 354.065 69.8804 350.574 59.6451C349.315 55.9583 346.711 54.0426 343.078 53.9865C339.446 53.9275 337.04 55.9081 335.355 60.1144C331.358 70.0478 327.269 79.9474 323.087 89.812C322.696 90.7135 322.465 91.67 322.404 92.6428C322.233 95.2285 324.448 97.1767 327.174 97.2387C329.445 97.2918 331.261 95.9428 332.171 93.1121L332.255 92.8552L332.255 92.8549C332.688 91.5292 333.122 90.1969 333.763 88.7553ZM362.848 93.3606C362.848 92.6551 363.05 91.5837 363.3 90.4148C364.528 84.6117 365.897 78.8174 367.268 73.0179C368.152 69.2743 369.037 65.5285 369.886 61.7768C370.895 57.3196 372.842 55.1678 377.157 55.2947C380.796 55.401 383.129 57.4082 383.973 61.3016C385.848 69.8455 387.817 78.3706 389.88 86.8756C392.195 78.4412 394.619 70.034 397.151 61.6558C398.248 57.9956 400.56 56.1242 404.423 56.2364C408.731 56.3574 410.644 58.7011 411.239 63.4239C411.336 64.198 411.433 64.9722 411.529 65.7467C412.653 74.7473 413.779 83.7713 415.096 92.7703C415.255 93.8388 415.358 94.5413 415.327 95.1287C415.133 98.3107 413.052 100.023 409.875 99.9578C407.149 99.9047 405.519 97.9595 405.099 94.1842C404.255 86.549 403.643 78.9044 403.031 71.2652C402.963 70.4194 402.896 69.5738 402.828 68.7282C398.058 85.8159 395.102 95.477 393.513 97.7204C392.606 99.0103 391.235 99.4147 389.198 99.3704C385.793 99.2966 384.167 97.8443 383.291 94.1842C381.319 85.9051 379.612 77.6073 377.885 69.2174C377.795 68.78 377.705 68.3425 377.615 67.9047C376.728 72.5088 375.95 77.1203 375.176 81.7073C374.563 85.3368 373.953 88.951 373.294 92.5341C372.515 96.7994 370.795 98.6679 367.618 98.5439C364.892 98.4376 362.848 96.5426 362.848 93.3606Z" fill="white"/>
</svg>
