<svg width="80" height="80" viewBox="0 0 80 80" fill="none" xmlns="http://www.w3.org/2000/svg">
<path d="M29.6128 50.2926C29.3261 50.2926 29.0366 50.0762 29.0366 49.7164V46.6951H29.7561V49.5731H32.6342V50.2926L29.6128 50.2926Z" fill="#1869C8"/>
<path d="M50.622 49.7165C50.622 50.0031 50.4055 50.2926 50.0458 50.2926H47.0244V49.5731H49.9025V46.6951H50.622L50.622 49.7165Z" fill="#1869C8"/>
<path d="M50.0458 28.7073C50.3325 28.7073 50.622 28.9237 50.622 29.2835V32.3048H49.9025V29.4268H47.0244V28.7073L50.0458 28.7073Z" fill="#1869C8"/>
<path d="M29.0366 29.2834C29.0366 28.9968 29.2531 28.7073 29.6128 28.7073H32.6342V29.4268H29.7561V32.3048H29.0366L29.0366 29.2834Z" fill="#1869C8"/>
<path d="M49.9024 9.65H29.7561C26.3981 9.65 23.65 12.3981 23.65 15.7561V63.2439C23.65 66.6019 26.3981 69.35 29.7561 69.35H49.9024C53.2604 69.35 56.0085 66.6019 56.0085 63.2439V15.7561C56.0085 12.3981 53.2604 9.65 49.9024 9.65ZM53.8695 63.2439C53.8695 65.4256 52.0841 67.211 49.9024 67.211H29.7561C27.5744 67.211 25.789 65.4256 25.789 63.2439V15.7561C25.789 13.5744 27.5744 11.789 29.7561 11.789H31.1951C31.2612 11.789 31.3565 11.8256 31.4423 11.9114C31.5281 11.9971 31.5646 12.0925 31.5646 12.1585V12.878C31.5646 13.864 32.3678 14.6671 33.3537 14.6671H46.3049C47.2908 14.6671 48.0939 13.8639 48.0939 12.878V12.1585C48.0939 12.0925 48.1305 11.9971 48.2162 11.9114C48.302 11.8256 48.3974 11.789 48.4634 11.789H49.9024C52.0841 11.789 53.8695 13.5744 53.8695 15.7561V63.2439Z" fill="#1869C8" stroke="#1869C8" stroke-width="0.7"/>
<path d="M31.9146 31.5853V47.4146H47.7438V31.5853H31.9146ZM37.6706 33.0244V37.3414H33.3536V33.0244H37.6706ZM46.3048 45.9756H33.3536V38.7804H39.1097V33.0244H46.3048V45.9756Z" fill="#1869C8"/>
<path d="M34.793 34.4635H36.232V35.9025H34.793V34.4635Z" fill="#1869C8"/>
<path d="M37.6709 43.0975H39.1099V44.5366H37.6709V43.0975Z" fill="#1869C8"/>
<path d="M34.793 40.2195H39.11V41.6585H34.793V40.2195Z" fill="#1869C8"/>
<path d="M34.793 43.0975H36.232V44.5366H34.793V43.0975Z" fill="#1869C8"/>
<path d="M40.5488 34.4635V37.3415H41.9879V35.9025H44.8659V34.4635H40.5488Z" fill="#1869C8"/>
<path d="M44.8659 44.5366H40.5488V43.0976H43.4269V41.6586H44.8659V44.5366Z" fill="#1869C8"/>
<path d="M40.5488 38.7805H41.9879V41.6586H40.5488V38.7805Z" fill="#1869C8"/>
<path d="M43.4268 37.3414H44.8658V40.2195H43.4268V37.3414Z" fill="#1869C8"/>
</svg>
