<svg width="101" height="101" viewBox="0 0 101 101" fill="none" xmlns="http://www.w3.org/2000/svg">
<path d="M50.885 62.2345C44.583 62.2345 39.3828 57.0343 39.3828 50.7323C39.3828 44.4303 44.583 39.23 50.885 39.23C57.1871 39.23 62.3873 44.4303 62.3873 50.7323C62.3873 57.0343 57.1871 62.2345 50.885 62.2345ZM50.885 42.2306C46.1849 42.2306 42.3834 46.0322 42.3834 50.7323C42.3834 55.4324 46.1849 59.2339 50.885 59.2339C55.5852 59.2339 59.3867 55.4324 59.3867 50.7323C59.3867 46.0322 55.5852 42.2306 50.885 42.2306Z" fill="white"/>
<path d="M55.3858 52.0335C54.5848 52.0335 53.8855 51.3342 53.8855 50.5332C53.8855 48.8337 52.4868 47.5327 50.8849 47.5327C49.9863 47.5327 49.283 47.8335 48.6853 48.5329C48.0836 49.1345 47.185 49.2322 46.5833 48.6344C45.9816 48.0328 45.8839 47.1341 46.4817 46.5324C47.5835 45.333 49.283 44.532 50.8809 44.532C54.1824 44.532 56.8821 47.2318 56.8821 50.5332C56.886 51.4318 56.1867 52.0335 55.3857 52.0335L55.3858 52.0335Z" fill="white"/>
<path d="M65.1888 66.5363C64.7903 66.5363 64.3879 66.4348 64.087 66.1378C63.4853 65.5361 63.4853 64.6375 64.087 64.0358C71.3892 56.7336 71.3892 44.8331 64.087 37.5307C63.4853 36.929 63.4853 36.0304 64.087 35.4287C64.6887 34.827 65.5873 34.827 66.189 35.4287C74.6907 43.9303 74.6907 57.734 66.189 66.2356C65.9897 66.4349 65.5873 66.5365 65.1888 66.5365V66.5363Z" fill="white"/>
<path d="M72.0882 73.5377C71.6897 73.5377 71.2873 73.4361 70.9864 73.1392C70.3847 72.5375 70.3847 71.6389 70.9864 71.0372C82.0906 59.933 82.0906 41.8325 70.9864 30.6313C70.3847 30.0297 70.3847 29.131 70.9864 28.5293C71.5881 27.9276 72.4867 27.9276 73.0884 28.5293C85.4928 40.7307 85.4928 60.7346 73.19 73.038C72.8892 73.3388 72.4906 73.5381 72.0882 73.5381L72.0882 73.5377Z" fill="white"/>
<path d="M79.0897 80.5391C78.6912 80.5391 78.2888 80.4375 77.9879 80.1406C77.3862 79.5389 77.3862 78.6403 77.9879 78.0386C92.9908 63.0357 92.9908 38.633 77.9879 23.63C77.3862 23.0284 77.3862 22.1298 77.9879 21.528C78.5896 20.9264 79.4882 20.9264 80.0899 21.528C96.292 37.7302 96.292 64.0363 80.0899 80.1414C79.8906 80.3407 79.4921 80.5399 79.0897 80.5399V80.5391Z" fill="white"/>
<path d="M36.1831 66.5363C35.7846 66.5363 35.3822 66.4347 35.0813 66.1378C26.5797 57.6362 26.5797 43.8325 35.0813 35.3308C35.683 34.7292 36.5816 34.7292 37.1833 35.3308C37.785 35.9325 37.785 36.8311 37.1833 37.4328C29.8811 44.7351 29.8811 56.6356 37.1833 63.938C37.785 64.5397 37.785 65.4383 37.1833 66.04C36.9841 66.4346 36.5816 66.5362 36.1831 66.5362V66.5363Z" fill="white"/>
<path d="M29.2844 73.5377C28.8859 73.5377 28.4835 73.4361 28.1826 73.1392C15.8792 60.7348 15.8792 40.7309 28.1826 28.4275C28.7843 27.8258 29.6829 27.8258 30.2846 28.4275C30.8863 29.0292 30.8863 29.9278 30.2846 30.5295C19.1805 41.6337 19.1805 59.7342 30.2846 70.9354C30.8863 71.537 30.8863 72.4356 30.2846 73.0374C30.0815 73.3382 29.6829 73.5375 29.2844 73.5375V73.5377Z" fill="white"/>
<path d="M22.2827 80.5391C21.8842 80.5391 21.4818 80.4375 21.1809 80.1406C4.97876 63.9384 4.97876 37.6323 21.1809 21.5272C21.7826 20.9255 22.6812 20.9255 23.2829 21.5272C23.8846 22.1289 23.8846 23.0275 23.2829 23.6292C8.28 38.6321 8.28 63.0348 23.2829 78.0378C23.8846 78.6394 23.8846 79.538 23.2829 80.1398C23.0798 80.339 22.6812 80.5383 22.2827 80.5383V80.5391Z" fill="white"/>
</svg>
