<svg width="80" height="80" viewBox="0 0 80 80" fill="none" xmlns="http://www.w3.org/2000/svg">
<rect x="19.2241" y="19.5" width="56.7385" height="40" rx="3.5" stroke="#1869C8" stroke-width="3"/>
<path d="M18.9741 50.4787H75.3711" stroke="#1869C8" stroke-width="3" stroke-linecap="square"/>
<path d="M18.9741 44.9893H75.3711" stroke="#1869C8" stroke-width="3" stroke-linecap="square"/>
<path d="M44.9331 33.0957C44.9331 33.8537 45.5475 34.4681 46.3054 34.4681H50.0912C50.8491 34.4681 51.4635 33.8537 51.4635 33.0957V33.0957C51.4635 32.3378 50.8491 31.7234 50.0912 31.7234H46.3054C45.5475 31.7234 44.9331 32.3378 44.9331 33.0957V33.0957Z" fill="#1869C8"/>
<path d="M3 33.0957C3 33.8537 3.61442 34.4681 4.37234 34.4681H14.2485C15.0064 34.4681 15.6208 33.8537 15.6208 33.0957V33.0957C15.6208 32.3378 15.0064 31.7234 14.2485 31.7234H4.37234C3.61442 31.7234 3 32.3378 3 33.0957V33.0957Z" fill="#1869C8"/>
<path d="M6.36523 39.5C6.36523 40.2579 6.97965 40.8724 7.73758 40.8724H14.2482C15.0061 40.8724 15.6205 40.2579 15.6205 39.5V39.5C15.6205 38.7421 15.0061 38.1277 14.2482 38.1277H7.73758C6.97965 38.1277 6.36523 38.7421 6.36523 39.5V39.5Z" fill="#1869C8"/>
<path d="M10.5728 44.9893C10.5728 45.7472 11.1872 46.3616 11.9451 46.3616H14.2487C15.0067 46.3616 15.6211 45.7472 15.6211 44.9893V44.9893C15.6211 44.2314 15.0067 43.6169 14.2487 43.6169H11.9451C11.1872 43.6169 10.5728 44.2314 10.5728 44.9893V44.9893Z" fill="#1869C8"/>
<path d="M53.3467 33.0957C53.3467 33.8537 53.9611 34.4681 54.719 34.4681H58.5047C59.2627 34.4681 59.8771 33.8537 59.8771 33.0957V33.0957C59.8771 32.3378 59.2627 31.7234 58.5047 31.7234H54.719C53.9611 31.7234 53.3467 32.3378 53.3467 33.0957V33.0957Z" fill="#1869C8"/>
<path d="M61.7607 33.0957C61.7607 33.8537 62.3752 34.4681 63.1331 34.4681H66.9188C67.6767 34.4681 68.2911 33.8537 68.2911 33.0957V33.0957C68.2911 32.3378 67.6767 31.7234 66.9188 31.7234H63.1331C62.3752 31.7234 61.7607 32.3378 61.7607 33.0957V33.0957Z" fill="#1869C8"/>
<path d="M28.6625 38.7128C31.9302 38.7128 34.3694 35.8724 34.3694 32.6383C34.3694 29.4042 31.9302 26.5638 28.6625 26.5638C25.3948 26.5638 22.9556 29.4042 22.9556 32.6383C22.9556 35.8724 25.3948 38.7128 28.6625 38.7128Z" stroke="#1869C8" stroke-width="3"/>
<path d="M34.5522 38.7128C37.8198 38.7128 40.2591 35.8724 40.2591 32.6383C40.2591 29.4042 37.8198 26.5638 34.5522 26.5638C31.2845 26.5638 28.8452 29.4042 28.8452 32.6383C28.8452 35.8724 31.2845 38.7128 34.5522 38.7128Z" stroke="#1869C8" stroke-width="3"/>
</svg>
